<?xml version="1.0" standalone="no"?><!DOCTYPE svg PUBLIC "-//W3C//DTD SVG 1.1//EN" "http://www.w3.org/Graphics/SVG/1.1/DTD/svg11.dtd"><svg t="1723015861632" class="icon" viewBox="0 0 1024 1024" version="1.1" xmlns="http://www.w3.org/2000/svg" p-id="7124" xmlns:xlink="http://www.w3.org/1999/xlink" width="140" height="140"><path d="M125.624934 696.914399l82.939334-5.759676c1.791899 14.847165 5.439694 26.110531 10.943385 33.854095 8.959496 12.479298 21.822772 18.750945 38.525833 18.750946 12.415302 0 22.014762-3.19982 28.79838-9.599461a29.822322 29.822322 0 0 0 10.047435-22.270747 29.50234 29.50234 0 0 0-9.59946-21.50279c-6.39964-6.39964-21.310801-12.351305-44.669488-17.918992-38.205851-9.471467-65.468317-22.014762-81.787399-37.629884a78.843565 78.843565 0 0 1-24.638614-59.708641 85.627183 85.627183 0 0 1 50.557156-78.39559c16.831053-8.127543 39.99775-12.159316 69.372098-12.159316 36.029973 0 63.548425 7.359586 82.427363 22.078758 18.942934 14.719172 30.206301 38.077858 33.790099 70.140054l-82.171377 5.311702c-2.175878-13.951215-6.783618-24.062646-13.759227-30.39829-7.039604-6.39964-16.639064-9.535464-28.990369-9.535464-10.111431 0-17.727003 2.367867-22.846715 7.039604a22.462736 22.462736 0 0 0-7.679568 17.279028c0 4.927723 2.047885 9.343474 6.271648 13.311251 4.159766 4.031773 13.887219 7.871557 29.310351 11.391359 38.077858 8.959496 65.404321 18.110981 81.915392 27.326463 16.447075 9.215482 28.414402 20.606841 35.965977 34.302071 7.487579 13.631233 11.263366 28.926373 11.263366 45.757426 0 19.838884-5.055716 38.141855-15.039154 54.908911-9.983438 16.767057-23.99865 29.438344-41.981638 38.077858-17.918992 8.639514-40.573718 12.991269-67.900181 12.99127-47.9973 0-81.275428-10.111431-99.706391-30.39829-18.49496-20.286859-28.926373-46.013412-31.358236-77.243655z m255.9856-212.340056h74.619803v120.953196L534.369942 484.510346h99.19442L545.633308 605.271553l91.962827 199.284791H545.633308l-50.877138-131.640596-38.525833 53.500991v78.139605H381.610534v-319.982001z m429.607835 0h82.363367V672.019799c0 18.558956-2.49586 36.157966-7.423582 52.669037a118.073358 118.073358 0 0 1-23.102701 43.325563 92.79478 92.79478 0 0 1-33.086139 26.046535c-15.9991 7.039604-35.262017 10.49541-57.724753 10.49541-13.055266 0-27.19847-1.087939-42.557606-3.19982-15.359136-2.175878-28.222412-6.39964-38.525833-12.79928-10.367417-6.335644-19.838884-15.359136-28.350405-27.134474a105.402071 105.402071 0 0 1-17.59901-36.221963c-5.119712-20.030873-7.679568-37.757876-7.679568-53.181008V484.574343h82.363367v191.9892c0 17.087039 4.09577 30.526283 12.159316 40.18974 8.063546 9.59946 19.262916 14.463186 33.59811 14.463186a41.533664 41.533664 0 0 0 33.406121-14.271197c8.127543-9.471467 12.159316-23.038704 12.159316-40.445725V484.574343z" p-id="7125"></path><path d="M63.9964 323.111425v636.252211h895.949603V323.111425L511.971202 64.693961 63.9964 323.111425zM32.254186 266.922586l447.974801-258.417464a63.484429 63.484429 0 0 1 63.484429 0l447.974802 258.417464c19.966877 11.519352 32.254186 32.958146 32.254185 56.124843v636.25221c0 35.709991-28.670387 64.636364-63.9964 64.636365H63.9964c-35.326013 0-63.9964-28.926373-63.9964-64.636365V323.111425c0-23.166697 12.287309-44.605491 32.254186-56.124843z" p-id="7126"></path><path d="M516.834928 288.041398a47.9973 47.9973 0 1 0 0-95.994601 47.9973 47.9973 0 0 0 0 95.994601z" p-id="7127"></path></svg>